<?xml version="1.0" standalone="no"?><!DOCTYPE svg PUBLIC "-//W3C//DTD SVG 1.1//EN" "http://www.w3.org/Graphics/SVG/1.1/DTD/svg11.dtd"><svg t="1727329758484" class="icon" viewBox="0 0 1024 1024" version="1.1" xmlns="http://www.w3.org/2000/svg" p-id="1676" width="64" height="64" xmlns:xlink="http://www.w3.org/1999/xlink"><path d="M0 0h1024v1024H0V0z" fill="#FFFFFF" p-id="1677" data-spm-anchor-id="a313x.search_index.0.i2.b4ad3a81jiZEbE" class=""></path><path d="M689.68968 887.08311c-12.191994-1.933719-23.045259-2.52871-23.045259-9.073606 0-2.52871 1.482164-5.200855 3.862126-6.980514 2.087779-1.641536 7.58613-2.236527 11.299508-2.236527 3.872751 0 7.74019 1.933719 10.11484 4.462429 1.482164 1.784972 3.267136 4.611177 3.569943 7.58613h19.778124c-0.446243-7.283322-3.569943-14.423209-9.222354-18.439395-5.49835-4.016186-12.638237-8.924858-22.455581-8.924858-9.360476 0-18.58283 0.302808-24.973666 5.057419-6.401461 4.605864-11.007325 12.335429-11.007326 19.034386 0 3.867439-0.292183 8.473303 1.195294 11.294196 1.641536 2.826205 6.390836 8.632676 10.104215 10.858577 5.206167 2.974953 17.398161 4.164934 24.091805 5.949906 5.49835 1.333416 12.191994 1.636224 13.684783 7.139886 0.881861 3.267136-0.15406 6.242088-3.123701 8.175808-2.831518 1.928407-7.139887 3.267136-11.899811 3.267136-4.908672 0-9.668597-1.482164-12.048559-4.457117-2.077155-2.826205-3.267136-5.503663-4.908672-9.817344H644.927266c0.446243 9.068294 5.508975 17.993152 11.745751 23.050572 6.098653 4.908672 14.279773 7.283322 24.681483 7.283322 10.417647 0 19.485941-1.784972 26.179585-6.544897 6.534271-4.754612 10.104215-13.674158 10.104214-20.95748 0-6.247401-1.784972-11.156073-4.605864-15.018199-5.795846-7.58613-16.202868-9.663284-23.342755-10.70983z m-257.838096 50.861068h20.075619v-83.277428h-20.075619v83.277428z m0-88.924526h20.224367v-20.075619h-20.224367v20.075619z m-29.29266 16.654423c-7.43207-5.80647-16.946606-9.817344-27.358941-10.114839h-1.041233c-23.050572 0-41.782149 18.73689-41.78215 41.638714 0 23.045259 18.731578 41.930897 41.78215 41.930897h1.041233c10.407022-0.143435 19.921559-4.313682 27.215506-11.448256l0.143435 10.2689h19.034386V828.949345h-19.034386v36.72473z m-27.210193 56.354106h-0.148748a24.87273 24.87273 0 0 1-24.830231-24.830231c0-13.530723 11.150761-24.830231 24.830231-24.830231h0.148748c13.530723 0 24.830231 11.150761 24.830231 24.830231s-11.299508 24.830231-24.830231 24.830231z m151.812903-56.656914c-7.426757-5.801158-16.946606-9.817344-27.35894-10.109527h-1.041234c-23.045259 0-41.930897 18.885638-41.930897 41.78215 0 23.050572 18.885638 41.93621 41.930897 41.936209h1.041234c10.407022-0.297495 19.772811-4.462429 27.215505-11.602316v10.263587h19.029073v-108.840772h-19.029073l0.143435 36.570669z m-27.353628 56.508166c-13.67947 0-24.978979-11.299508-24.978979-24.978979 0-13.536035 11.299508-24.681483 24.978979-24.681483s24.984291 11.150761 24.984291 24.681483c-0.005312 13.67947-11.304821 24.978979-24.984291 24.978979z m-194.200668-67.212683v7.883625c-3.867439-4.164934-5.647098-5.49835-10.109527-7.139887-4.016186-1.482164-9.519849-2.826205-14.874764-2.974953h-0.887174c-6.396148 0-12.043246 1.035921-17.100666 3.118388-4.908672 2.087779-9.519849 5.354915-13.67947 9.817344-3.718691 3.872751-6.688331 8.622051-8.919546 13.833531a46.202079 46.202079 0 0 0-2.974953 16.351615c0 12.643549 4.164934 23.199319 12.489489 31.375127 8.18112 8.324555 18.588143 12.643549 31.077632 12.64355h0.148748c5.05742 0 10.55577-1.487476 15.018199-3.129013 4.457117-1.636224 7.734877-2.974953 9.812032-5.944593v7.586129l19.33188-0.143435-0.148747-83.420864-19.183133 0.143436z m-24.830231 66.022702h-0.148748a24.617734 24.617734 0 0 1-24.681483-24.681483 24.713358 24.713358 0 0 1 24.681483-24.681484h0.148748c13.530723 0 24.681483 11.150761 24.681483 24.681484a24.713358 24.713358 0 0 1-24.681483 24.681483z m340.217726-66.320198l0.143435 7.878313c-3.862126-4.010874-5.790533-5.354915-10.104215-7.139887a50.058893 50.058893 0 0 0-14.869451-2.820893h-0.892486c-6.401461 0-12.048559 1.035921-17.100666 2.974953-5.062732 2.087779-9.668597 5.503663-13.684783 9.817344-3.862126 3.867439-6.837079 8.622051-8.924858 13.982279a45.771774 45.771774 0 0 0-3.123701 16.351615c0 12.494802 4.313682 23.045259 12.648862 31.375127 8.021748 8.175808 18.58283 12.489489 31.077632 12.489489 5.200855 0 10.699205-1.333416 15.012887-3.118388 4.462429-1.641536 7.883625-2.980265 9.960779-5.949905v7.586129l19.331881-0.148747-0.292183-83.272116h-19.183133v-0.005313z m-24.830231 66.17145c-13.684783-0.148748-24.840856-11.156073-24.840856-24.835543 0-13.530723 11.156073-24.532736 24.840856-24.681483 13.674158 0 24.830231 11.150761 24.830231 24.681483 0 13.684783-11.156073 24.835543-24.830231 24.835543z m138.287493-110.184814c-0.15406 0-0.302808-0.143435-0.302808-0.143435-12.941045 0-23.491502 10.55577-23.491502 23.491502s10.550458 23.353379 23.491502 23.35338h0.302808c12.781672-0.15406 23.188695-10.561082 23.188694-23.35338s-10.407022-23.199319-23.188694-23.348067z m0 42.972131a19.602814 19.602814 0 0 1-19.629376-19.624064c0-10.55577 8.765486-19.480628 19.629376-19.33188 10.853265 0 19.618751 8.770798 19.618751 19.480628 0 10.704518-8.765486 19.475316-19.618751 19.475316z" p-id="1678" data-spm-anchor-id="a313x.search_index.0.i3.b4ad3a81jiZEbE" class="selected" fill="#1296db"></path><path d="M741.289174 837.566084a16.117869 16.117869 0 0 0-2.820893-2.225903c2.231215-0.302808 4.005561-1.195294 5.052107-2.534022 1.035921-1.035921 1.784972-2.672145 1.784972-4.462429 0-1.482164-0.600303-2.974953-1.195293-4.159622a7.458632 7.458632 0 0 0-2.980266-2.379962c-1.184669-0.446243-3.1237-0.589678-5.944593-0.589678h-10.853265v25.419909h5.206167v-10.704517h0.892486c1.184669 0 2.077155 0.148748 2.666833 0.297495 0.600303 0.15406 0.903111 0.446243 1.349353 0.897798 0 0.143435 0.143435 0.143435 0.143436 0.297495 0.589678 0.297495 1.482164 1.636224 2.820892 3.569944l3.713379 5.641785h6.098653l-3.1237-4.90336c-1.179356-1.933719-2.22059-3.569943-2.810268-4.164933z m-6.837079-5.641786h-4.908672v-6.396148h4.908672c1.482164 0 2.523397 0 2.820893 0.148747a2.921829 2.921829 0 0 1 1.928407 0.892486c0.589678 0.440931 0.749051 1.189981 0.74905 1.928407s-0.15406 1.641536-0.600303 2.082467c-0.435618 0.302808-0.881861 0.743738-1.338729 1.041233-0.589678 0.148748-1.774347 0.148748-3.559318 0.302808z m-304.53423-134.127871H260.260557c50.701695 31.375127 110.036066 52.194484 177.540933 66.171449l-7.883625-66.171449z m129.367947 0.148747l-10.114839 62.149951c67.807674-12.489489 127.582975-32.113553 179.479964-62.149951h-169.365125z m-19.485941-0.297495l-93.227583 0.143435c13.08448 27.210193 29.744215 50.112017 48.773289 71.972608 18.73689-22.306834 31.226379-45.352093 44.454294-72.116043z m250.857582-41.335907l-593.444645-0.302807c-19.778124-15.761937-33.160099-23.937745-49.070784-44.90585h692.319326c-15.45913 16.957231-33.149474 32.267613-49.803897 45.208657z m88.462346-96.654091l-766.964079 0.297495c-10.258275-14.274461-22.009338-34.344767-29.29266-50.255452H908.423084c-7.729565 17.839092-18.147212 34.344767-29.303285 49.957957zM330.288821 455.274025l-267.798875 0.148748C37.95721 398.765859 22.492768 340.329287 15.055386 267.767001 153.050696 292.299736 259.516819 348.95665 330.288821 455.274025z m274.349084 0.446243H384.417025c-4.908672-141.708689 34.35008-285.499844 110.184814-372.039096 77.024715 84.31335 116.878458 227.504202 110.036066 372.039096z m326.384195-0.297495l-273.010355 0.148747c75.388491-106.01988 183.639586-165.943929 323.860799-187.209529-8.765486 70.931374-25.127726 131.147606-50.850444 187.060782z m25.722717-310.771006c-0.292183-0.148748-0.589678-0.148748-0.892486-0.148748-28.846417 0-52.635415 23.645562-52.635414 52.49198 0 28.846417 23.79431 52.486667 52.635414 52.486667h0.892486c28.857042-0.440931 52.199797-23.937745 52.199797-52.486667 0-28.554234-23.348067-51.902301-52.199797-52.343232z m0 96.648779c-24.08118 0-43.859304-19.926871-43.859304-44.013364 0-23.79431 19.778124-43.864616 43.859304-43.567121 24.394613 0 44.013364 19.778124 44.013364 43.715868 0 24.23524-19.618751 43.864616-44.013364 43.864617z" p-id="1679" data-spm-anchor-id="a313x.search_index.0.i1.b4ad3a81jiZEbE" class="selected" fill="#1296db"></path><path d="M972.060512 205.760485a34.780386 34.780386 0 0 0-6.088029-4.908672c4.908672-0.743738 8.765486-2.379962 11.442944-5.503663 2.385275-2.52871 3.724003-6.098653 3.724003-10.258275 0-3.421196-1.195294-6.544896-2.677457-9.222353-1.641536-2.379962-4.170246-4.457117-6.847704-5.200855-2.666833-1.189981-7.129262-1.779659-13.376663-1.77966h-23.788997v57.24128h11.156073V202.190541h2.374649c2.677458 0 4.605864 0.143435 5.944594 0.594991 0.892486 0.446243 1.928407 1.041233 2.820892 1.933719 0.15406 0.148748 0.456868 0.297495 0.600303 0.446243 0.892486 1.338729 2.96964 4.016186 6.088029 8.478616l8.175807 12.489489h13.833531l-6.837079-11.002013c-2.677458-4.462429-5.052107-7.883625-6.544896-9.371101z m-15.315695-12.786985h-11.145448v-14.125713h11.145448c3.27776 0 5.508975 0 6.247401 0.148747 2.087779 0.148748 3.569943 1.189981 4.462429 2.231215 1.195294 0.887173 1.492789 2.677458 1.492789 4.457117 0 1.487476-0.302808 3.272448-1.046546 4.462429-0.892486 0.892486-1.928407 1.784972-3.415883 2.231215-1.195294 0.297495-3.569943 0.446243-7.74019 0.59499z" p-id="1680" data-spm-anchor-id="a313x.search_index.0.i4.b4ad3a81jiZEbE" class="selected" fill="#1296db"></path></svg>